<svg width="35" height="31" viewBox="0 0 35 31" fill="none" xmlns="http://www.w3.org/2000/svg">
<path d="M22.8548 15.7187C22.8548 16.9852 22.2868 18.1998 21.2757 19.0954C20.2646 19.991 18.8933 20.4941 17.4634 20.4941C16.0336 20.4941 14.6622 19.991 13.6512 19.0954C12.6401 18.1998 12.0721 16.9852 12.0721 15.7187C12.0721 15.4465 12.1044 15.1806 12.1601 14.9227H10.275V21.2852C10.275 21.7277 10.6793 22.0859 11.1789 22.0859H23.7498C23.9892 22.0855 24.2186 22.0009 24.3878 21.8508C24.5569 21.7007 24.6519 21.4973 24.6519 21.2852V14.9227H22.7667C22.8224 15.1806 22.8548 15.4465 22.8548 15.7187ZM17.4634 18.9023C17.9355 18.9022 18.403 18.8197 18.8392 18.6596C19.2753 18.4994 19.6716 18.2648 20.0053 17.969C20.3391 17.6732 20.6038 17.3221 20.7843 16.9357C20.9649 16.5494 21.0578 16.1352 21.0577 15.7171C21.0575 15.2989 20.9644 14.8848 20.7837 14.4985C20.6029 14.1122 20.338 13.7612 20.004 13.4656C19.6701 13.1699 19.2737 12.9355 18.8375 12.7755C18.4013 12.6156 17.9338 12.5333 17.4616 12.5334C16.5081 12.5336 15.5938 12.8694 14.9198 13.4667C14.2457 14.064 13.8672 14.8741 13.8674 15.7187C13.8676 16.5632 14.2466 17.3731 14.921 17.9701C15.5954 18.5672 16.5099 18.9025 17.4634 18.9023ZM21.7765 12.3758H23.9313C24.0744 12.3758 24.2117 12.3256 24.3131 12.2361C24.4145 12.1466 24.4717 12.0251 24.4722 11.8983V9.98972C24.4722 9.86265 24.4152 9.74078 24.3138 9.65092C24.2123 9.56107 24.0747 9.51059 23.9313 9.51059H21.7765C21.633 9.51059 21.4955 9.56107 21.394 9.65092C21.2926 9.74078 21.2356 9.86265 21.2356 9.98972V11.8983C21.2374 12.161 21.48 12.3758 21.7765 12.3758ZM17.4634 0.437256C12.8878 0.437256 8.49962 2.04726 5.26418 4.91307C2.02874 7.77889 0.21109 11.6658 0.21109 15.7187C0.21109 19.7715 2.02874 23.6584 5.26418 26.5242C8.49962 29.3901 12.8878 31.0001 17.4634 31.0001C19.729 31.0001 21.9725 30.6048 24.0656 29.8368C26.1588 29.0689 28.0606 27.9432 29.6627 26.5242C31.2647 25.1052 32.5355 23.4206 33.4025 21.5666C34.2695 19.7126 34.7158 17.7254 34.7158 15.7187C34.7158 13.7119 34.2695 11.7247 33.4025 9.87072C32.5355 8.01669 31.2647 6.33208 29.6627 4.91307C28.0606 3.49406 26.1588 2.36845 24.0656 1.60048C21.9725 0.832521 19.729 0.437256 17.4634 0.437256ZM26.449 21.9092C26.449 22.8818 25.5505 23.6777 24.4524 23.6777H10.4744C9.37639 23.6777 8.47784 22.8818 8.47784 21.9092V9.5281C8.47784 8.5555 9.37639 7.75959 10.4744 7.75959H24.4524C25.5505 7.75959 26.449 8.5555 26.449 9.5281V21.9092Z" fill="#0134b7b8"/>
</svg>
