<svg width="18" height="16" viewBox="0 0 18 16" fill="none" xmlns="http://www.w3.org/2000/svg">
<path d="M9.67156 15.4942H5.90617V5.48856H9.67156V7.15617C10.068 6.70947 10.571 6.34602 11.1447 6.09186C11.7184 5.83771 12.3485 5.69917 12.9898 5.68617C14.1113 5.69168 15.1846 6.09092 15.9743 6.79632C16.764 7.50173 17.2056 8.45573 17.2023 9.44913V15.4942H13.4369V9.86604C13.3641 9.41543 13.11 9.00328 12.7213 8.70544C12.3327 8.40761 11.8357 8.24414 11.3217 8.24512C11.0917 8.25156 10.8656 8.29909 10.6568 8.38486C10.448 8.47063 10.261 8.59287 10.1069 8.74425C9.95276 8.89563 9.83476 9.07303 9.75996 9.26579C9.68516 9.45856 9.65509 9.66273 9.67156 9.86604V15.4942ZM4.02347 15.4942H0.25808V5.48856H4.02347V15.4942ZM2.14078 3.82094C1.64145 3.82094 1.16258 3.64525 0.809508 3.33251C0.456435 3.01977 0.25808 2.59561 0.25808 2.15333C0.25808 1.71105 0.456435 1.28689 0.809508 0.97415C1.16258 0.661412 1.64145 0.485718 2.14078 0.485718C2.6401 0.485718 3.11897 0.661412 3.47204 0.97415C3.82512 1.28689 4.02347 1.71105 4.02347 2.15333C4.02347 2.59561 3.82512 3.01977 3.47204 3.33251C3.11897 3.64525 2.6401 3.82094 2.14078 3.82094Z" fill="#3958A7"/>
</svg>
