<svg width="16" height="22" viewBox="0 0 16 22" fill="none" xmlns="http://www.w3.org/2000/svg">
<path d="M2.72846 1.31656L4.38874 0.815987C4.93669 0.651044 5.52594 0.691064 6.04655 0.928582C6.56717 1.1661 6.9836 1.58489 7.21817 2.10684L8.38217 4.69542C8.5842 5.14449 8.64051 5.64556 8.5432 6.12828C8.44588 6.611 8.19984 7.05112 7.8396 7.38684L6.06789 9.0377C5.83046 9.26313 6.01046 10.1417 6.87789 11.6451C7.74617 13.1494 8.41732 13.7443 8.72674 13.6517L11.0479 12.942C11.5184 12.7981 12.0221 12.805 12.4885 12.9618C12.9548 13.1186 13.3605 13.4174 13.6485 13.8163L15.3027 16.1091C15.6369 16.5721 15.7916 17.1407 15.7382 17.7092C15.6847 18.2776 15.4267 18.8074 15.0122 19.2L13.7333 20.4111C13.3205 20.8021 12.8113 21.0765 12.2578 21.2065C11.7042 21.3365 11.1261 21.3172 10.5825 21.1508C7.90303 20.3306 5.4216 17.8963 3.10474 13.8823C0.782744 9.86227 -0.0941127 6.47142 0.51703 3.70113C0.640291 3.14292 0.910193 2.62768 1.29891 2.20853C1.68763 1.78937 2.1811 1.48147 2.72846 1.31656Z" fill="#0024A3"/>
</svg>
