<svg width="35" height="31" viewBox="0 0 35 31" fill="none" xmlns="http://www.w3.org/2000/svg">
<path d="M17.4238 0.437256C7.89549 0.437256 0.171478 7.27887 0.171478 15.7187C0.171478 24.1584 7.89549 31.0001 17.4238 31.0001C26.9521 31.0001 34.6762 24.1584 34.6762 15.7187C34.6762 7.27887 26.9521 0.437256 17.4238 0.437256ZM24.4416 12.9553C24.4488 13.0858 24.4506 13.2163 24.4506 13.3437C24.4506 17.3232 21.0342 21.9092 14.7838 21.9092C12.9369 21.9119 11.1284 21.4421 9.5758 20.5562C9.83998 20.5848 10.1113 20.596 10.3863 20.596C11.9785 20.596 13.4432 20.1168 14.6059 19.3082C13.8974 19.2959 13.2108 19.088 12.6419 18.7137C12.073 18.3393 11.6501 17.8171 11.4322 17.2197C11.9411 17.3054 12.4653 17.2875 12.9652 17.1672C12.1961 17.0295 11.5045 16.6603 11.0076 16.1224C10.5107 15.5845 10.2391 14.911 10.2389 14.216V14.1794C10.6972 14.4038 11.222 14.5407 11.7791 14.5566C11.0581 14.1315 10.5477 13.4784 10.3522 12.731C10.1568 11.9836 10.2911 11.1983 10.7278 10.5357C11.5813 11.4653 12.6457 12.2258 13.8522 12.7679C15.0586 13.31 16.3801 13.6217 17.7311 13.6827C17.5594 13.0369 17.6333 12.359 17.9414 11.7543C18.2495 11.1495 18.7746 10.6519 19.4349 10.3387C20.0953 10.0256 20.8539 9.91446 21.5929 10.0226C22.332 10.1308 23.0099 10.4522 23.5214 10.9368C24.2819 10.8036 25.0112 10.5565 25.678 10.2062C25.4245 10.9036 24.8939 11.4959 24.1846 11.8728C24.8582 11.801 25.516 11.6406 26.1362 11.3969C25.6807 12.0016 25.1067 12.5294 24.4416 12.9553Z" fill="#0134b7b8"/>
</svg>
